<svg width="500" height="500" viewBox="0 0 500 500" fill="none" xmlns="http://www.w3.org/2000/svg">
<rect width="500" height="500" fill="white"/>
<circle cx="250" cy="250" r="250" fill="#446FB0"/>
<path d="M171.791 354.551C151.315 354.551 132.753 350.134 116.104 341.3C99.6466 332.275 86.6337 319.888 77.0654 304.142C67.6885 288.203 63 270.247 63 250.275C63 230.304 67.6885 212.444 77.0654 196.697C86.6337 180.758 99.6466 168.372 116.104 159.539C132.753 150.513 151.411 146 172.079 146C189.493 146 205.185 149.073 219.155 155.218C233.316 161.363 245.18 170.197 254.749 181.719L224.896 209.372C211.309 193.625 194.468 185.751 174.375 185.751C161.936 185.751 150.837 188.536 141.077 194.105C131.318 199.482 123.663 207.067 118.113 216.861C112.755 226.655 110.076 237.793 110.076 250.275C110.076 262.758 112.755 273.896 118.113 283.69C123.663 293.484 131.318 301.165 141.077 306.734C150.837 312.111 161.936 314.799 174.375 314.799C194.468 314.799 211.309 306.83 224.896 290.891L254.749 318.544C245.18 330.258 233.316 339.188 219.155 345.333C204.993 351.478 189.206 354.551 171.791 354.551Z" fill="#ECF6FA"/>
<path d="M332.653 186.904V240.194H425.657V277.641H332.653V351.094H286.151V149.457H438V186.904H332.653Z" fill="#ECF6FA"/>
</svg>
